<!DOCTYPE svg PUBLIC "-//W3C//DTD SVG 1.1//EN" "http://www.w3.org/Graphics/SVG/1.1/DTD/svg11.dtd">
<!-- Uploaded to: SVG Repo, www.svgrepo.com, Transformed by: SVG Repo Mixer Tools -->
<svg width="800px" height="800px" viewBox="-2 -2 24.00 24.00" xmlns="http://www.w3.org/2000/svg" fill="none" stroke="#000000" transform="matrix(1, 0, 0, 1, 0, 0)rotate(0)">
<g id="SVGRepo_bgCarrier" stroke-width="0"/>
<g id="SVGRepo_tracerCarrier" stroke-linecap="round" stroke-linejoin="round" stroke="#CCCCCC" stroke-width="0.04"/>
<g id="SVGRepo_iconCarrier"> <path fill="#bfbfbf" fill-rule="evenodd" d="M15.293 9.707a1 1 0 001.414-1.414l-6-6a1 1 0 00-1.414 0l-6 6a1 1 0 001.414 1.414L10 4.414l5.293 5.293zm0 8a1 1 0 001.414-1.414l-6-6a1 1 0 00-1.414 0l-6 6a1 1 0 101.414 1.414L10 12.414l5.293 5.293z"/> </g>
</svg>